<svg xmlns="http://www.w3.org/2000/svg" xmlns:xlink="http://www.w3.org/1999/xlink" viewBox="0,0,256,256" width="256px" height="256px" fill-rule="nonzero"><defs><linearGradient x1="32.092" y1="7.766" x2="32.092" y2="57.066" gradientUnits="userSpaceOnUse" id="color-1"><stop offset="0" stop-color="#1a6dff"></stop><stop offset="1" stop-color="#c822ff"></stop></linearGradient><linearGradient x1="32.001" y1="7.766" x2="32.001" y2="57.066" gradientUnits="userSpaceOnUse" id="color-2"><stop offset="0" stop-color="#1a6dff"></stop><stop offset="1" stop-color="#c822ff"></stop></linearGradient><linearGradient x1="31.995" y1="19.575" x2="31.995" y2="40.626" gradientUnits="userSpaceOnUse" id="color-3"><stop offset="0" stop-color="#6dc7ff"></stop><stop offset="1" stop-color="#e6abff"></stop></linearGradient></defs><g transform="translate(4,4) scale(0.96875,0.96875)"><g fill="none" fill-rule="nonzero" stroke="none" stroke-width="1" stroke-linecap="butt" stroke-linejoin="miter" stroke-miterlimit="10" stroke-dasharray="" stroke-dashoffset="0" font-family="none" font-weight="none" font-size="none" text-anchor="none" style="mix-blend-mode: normal"><g transform="translate(-0.36677,-15.84) scale(4,4)"><path d="M53.316,8.324c-0.189,-0.206 -0.457,-0.324 -0.737,-0.324h-38.974c-0.84,0 -1.646,0.355 -2.213,0.975c-0.567,0.62 -0.85,1.453 -0.775,2.289l3.318,37.613c0.109,1.229 0.979,2.281 2.165,2.62l15.075,4.308c0.27,0.076 0.547,0.115 0.824,0.115c0.277,0 0.555,-0.039 0.824,-0.115l15.075,-4.308c1.186,-0.339 2.056,-1.392 2.165,-2.621l3.511,-39.788c0.026,-0.279 -0.068,-0.557 -0.258,-0.764zM48.072,48.699c-0.037,0.417 -0.32,0.76 -0.722,0.874l-15.075,4.308c-0.18,0.053 -0.371,0.053 -0.551,0l-15.075,-4.308c-0.401,-0.114 -0.685,-0.457 -0.722,-0.873l-3.318,-37.612c-0.025,-0.283 0.066,-0.554 0.259,-0.763c0.192,-0.21 0.453,-0.325 0.737,-0.325h37.882z" fill="url(#color-1)"></path><path d="M18.521,48.028l13.205,3.773c0.09,0.025 0.182,0.038 0.274,0.038c0.092,0 0.185,-0.013 0.274,-0.038l13.205,-3.773c0.398,-0.114 0.686,-0.462 0.722,-0.874l3.006,-34.066c0.024,-0.279 -0.069,-0.557 -0.259,-0.764c-0.189,-0.206 -0.457,-0.324 -0.737,-0.324h-32.421c-0.28,0 -0.548,0.118 -0.737,0.324c-0.189,0.207 -0.283,0.484 -0.259,0.764l3.005,34.066c0.036,0.412 0.323,0.76 0.722,0.874zM47.119,14l-2.85,32.294l-12.269,3.506l-12.27,-3.506l-2.848,-32.294z" fill="url(#color-2)"></path><g fill="url(#color-3)"><path d="M41.661,23.541l0.245,-3c0.024,-0.292 -0.206,-0.541 -0.498,-0.541h-18.825c-0.289,0 -0.517,0.244 -0.499,0.532l0.698,11c0.016,0.263 0.235,0.468 0.499,0.468h12.916c0.289,0 0.518,0.245 0.499,0.533l-0.269,4.061c-0.013,0.201 -0.146,0.375 -0.337,0.44l-3.982,1.36c-0.105,0.036 -0.218,0.036 -0.323,0l-3.985,-1.361c-0.19,-0.065 -0.322,-0.236 -0.337,-0.436l-0.159,-2.134c-0.019,-0.261 -0.237,-0.463 -0.499,-0.463h-3.349c-0.29,0 -0.519,0.246 -0.499,0.535l0.374,5.319c0.014,0.203 0.15,0.376 0.342,0.44l8.115,2.671c0.102,0.033 0.211,0.033 0.313,0l8.113,-2.67c0.194,-0.064 0.33,-0.24 0.343,-0.444l0.707,-11.32c0.018,-0.288 -0.21,-0.531 -0.499,-0.531h-13.361c-0.26,0 -0.477,-0.2 -0.498,-0.459l-0.245,-3c-0.023,-0.292 0.206,-0.541 0.499,-0.541h14.003c0.26,0 0.477,-0.2 0.498,-0.459z"></path></g></g></g><g fill="#a133f0" fill-rule="nonzero" stroke="none" stroke-width="1" stroke-linecap="butt" stroke-linejoin="miter" stroke-miterlimit="10" stroke-dasharray="" stroke-dashoffset="0" font-family="none" font-weight="none" font-size="none" text-anchor="none" style="mix-blend-mode: normal"><g id="text"><path d="M58.675,235.975v0.89c0,1.96 -0.34667,3.67667 -1.04,5.15c-0.69333,1.48 -1.68333,2.62 -2.97,3.42c-1.29333,0.8 -2.77333,1.2 -4.44,1.2v0c-1.64667,0 -3.12,-0.39667 -4.42,-1.19c-1.29333,-0.79333 -2.29333,-1.92333 -3,-3.39c-0.71333,-1.47333 -1.07333,-3.16667 -1.08,-5.08v0v-0.99c0,-1.96 0.35333,-3.68333 1.06,-5.17c0.7,-1.49333 1.69667,-2.63667 2.99,-3.43c1.28667,-0.8 2.76,-1.2 4.42,-1.2c1.66,0 3.13667,0.4 4.43,1.2c1.28667,0.79333 2.28333,1.93667 2.99,3.43c0.70667,1.48667 1.06,3.20667 1.06,5.16zM54.515,236.935v-0.97c0,-2.09333 -0.37333,-3.68 -1.12,-4.76c-0.74667,-1.08667 -1.81333,-1.63 -3.2,-1.63v0c-1.37333,0 -2.43333,0.53667 -3.18,1.61c-0.74667,1.06667 -1.12667,2.63667 -1.14,4.71v0v0.97c0,2.03333 0.37333,3.61 1.12,4.73c0.74667,1.12 1.82333,1.68 3.23,1.68v0c1.37333,0 2.43,-0.54 3.17,-1.62c0.74,-1.08 1.11333,-2.65333 1.12,-4.72zM65.565,225.365v21h-3.97v-21zM81.385,246.365h-3.99c-0.18667,-0.35333 -0.32,-0.79667 -0.4,-1.33v0c-0.96,1.06667 -2.20333,1.6 -3.73,1.6v0c-1.45333,0 -2.65667,-0.41667 -3.61,-1.25c-0.94667,-0.84 -1.42,-1.9 -1.42,-3.18v0c0,-1.56667 0.58,-2.77 1.74,-3.61c1.16,-0.83333 2.84,-1.25667 5.04,-1.27v0h1.82v-0.84c0,-0.68667 -0.17667,-1.23667 -0.53,-1.65c-0.35333,-0.40667 -0.90667,-0.61 -1.66,-0.61v0c-0.66667,0 -1.19,0.16 -1.57,0.48c-0.38,0.32 -0.57,0.75667 -0.57,1.31v0h-3.95c0,-0.85333 0.26667,-1.64667 0.8,-2.38c0.52667,-0.72667 1.27333,-1.29667 2.24,-1.71c0.96667,-0.42 2.05,-0.63 3.25,-0.63v0c1.82667,0 3.27333,0.46 4.34,1.38c1.07333,0.91333 1.61,2.2 1.61,3.86v0v6.41c0.00667,1.40667 0.20333,2.47 0.59,3.19v0zM74.125,243.615v0c0.58,0 1.11667,-0.13 1.61,-0.39c0.49333,-0.26 0.86,-0.60667 1.1,-1.04v0v-2.55h-1.48c-1.98,0 -3.03333,0.68333 -3.16,2.05v0l-0.01,0.24c0,0.48667 0.17333,0.89 0.52,1.21c0.34667,0.32 0.82,0.48 1.42,0.48zM83.835,231.575h3.7l0.12,1.65c1.05333,-1.28667 2.47333,-1.93 4.26,-1.93v0c1.9,0 3.20667,0.75333 3.92,2.26v0c1.04,-1.50667 2.52,-2.26 4.44,-2.26v0c1.60667,0 2.8,0.46667 3.58,1.4c0.78667,0.94 1.18,2.34667 1.18,4.22v0v9.45h-3.96v-9.43c0,-0.84 -0.16667,-1.45333 -0.5,-1.84c-0.32667,-0.38667 -0.90333,-0.58 -1.73,-0.58v0c-1.18667,0 -2.00667,0.56333 -2.46,1.69v0l0.01,10.16h-3.95v-9.42c0,-0.86 -0.17,-1.48 -0.51,-1.86c-0.33333,-0.38 -0.90667,-0.57 -1.72,-0.57v0c-1.12,0 -1.93,0.46333 -2.43,1.39v0v10.46h-3.95zM112.245,231.575v14.79h-3.97v-14.79zM108.045,227.745v0c0,-0.59333 0.19667,-1.08 0.59,-1.46c0.4,-0.38667 0.94,-0.58 1.62,-0.58v0c0.67333,0 1.21333,0.19333 1.62,0.58c0.4,0.38 0.6,0.86667 0.6,1.46v0c0,0.6 -0.20333,1.09333 -0.61,1.48c-0.40667,0.38 -0.94333,0.57 -1.61,0.57c-0.66667,0 -1.2,-0.19 -1.6,-0.57c-0.40667,-0.38667 -0.61,-0.88 -0.61,-1.48zM114.875,238.855v0c0,-2.3 0.52,-4.13667 1.56,-5.51c1.03333,-1.36667 2.44667,-2.05 4.24,-2.05v0c1.44,0 2.63,0.54 3.57,1.62v0v-7.55h3.96v21h-3.56l-0.2,-1.57c-0.98,1.22667 -2.24667,1.84 -3.8,1.84v0c-1.74,0 -3.13667,-0.68333 -4.19,-2.05c-1.05333,-1.37333 -1.58,-3.28333 -1.58,-5.73zM118.835,239.145v0c0,1.38667 0.24,2.45 0.72,3.19c0.48,0.73333 1.18333,1.1 2.11,1.1v0c1.22,0 2.08,-0.51333 2.58,-1.54v0v-5.84c-0.49333,-1.02667 -1.34667,-1.54 -2.56,-1.54v0c-1.9,0 -2.85,1.54333 -2.85,4.63zM138.085,246.635v0c-2.17333,0 -3.94,-0.66333 -5.3,-1.99c-1.36667,-1.33333 -2.05,-3.10667 -2.05,-5.32v0v-0.38c0,-1.48667 0.28667,-2.81667 0.86,-3.99c0.58,-1.17333 1.39667,-2.07667 2.45,-2.71c1.04667,-0.63333 2.24667,-0.95 3.6,-0.95v0c2.02,0 3.61333,0.64 4.78,1.92c1.16,1.27333 1.74,3.08333 1.74,5.43v0v1.61h-9.42c0.12667,0.96667 0.51,1.74 1.15,2.32c0.64667,0.58667 1.46,0.88 2.44,0.88v0c1.52667,0 2.71667,-0.55333 3.57,-1.66v0l1.94,2.18c-0.58667,0.84 -1.38667,1.49333 -2.4,1.96c-1.01333,0.46667 -2.13333,0.7 -3.36,0.7zM137.625,234.495v0c-0.78,0 -1.41333,0.26667 -1.9,0.8c-0.48667,0.52667 -0.8,1.28333 -0.94,2.27v0h5.5v-0.32c-0.02,-0.87333 -0.25667,-1.55 -0.71,-2.03c-0.46,-0.48 -1.11,-0.72 -1.95,-0.72zM156.385,226.455l4.12,8.97l4.14,-8.97h4.48l-6.53,12.69v7.22h-4.17v-7.22l-6.54,-12.69zM169.185,239.005v-0.17c0,-1.46667 0.28333,-2.77667 0.85,-3.93c0.56,-1.14667 1.37333,-2.03333 2.44,-2.66c1.06,-0.63333 2.29333,-0.95 3.7,-0.95v0c1.99333,0 3.62,0.61333 4.88,1.84c1.26667,1.22 1.97333,2.87667 2.12,4.97v0l0.02,1.01c0,2.27333 -0.63333,4.09667 -1.9,5.47c-1.26667,1.36667 -2.96667,2.05 -5.1,2.05c-2.13333,0 -3.83333,-0.68333 -5.1,-2.05c-1.27333,-1.36667 -1.91,-3.22667 -1.91,-5.58zM173.135,239.115v0c0,1.40667 0.26333,2.48 0.79,3.22c0.53333,0.74667 1.29,1.12 2.27,1.12v0c0.96,0 1.70667,-0.36667 2.24,-1.1c0.54,-0.73333 0.81,-1.90667 0.81,-3.52v0c0,-1.38 -0.27,-2.44667 -0.81,-3.2c-0.53333,-0.76 -1.28667,-1.14 -2.26,-1.14v0c-0.96667,0 -1.71667,0.37667 -2.25,1.13c-0.52667,0.75333 -0.79,1.91667 -0.79,3.49zM185.635,231.575h3.7l0.12,1.65c1.05333,-1.28667 2.47333,-1.93 4.26,-1.93v0c1.9,0 3.20667,0.75333 3.92,2.26v0c1.04,-1.50667 2.52,-2.26 4.44,-2.26v0c1.60667,0 2.80333,0.46667 3.59,1.4c0.78,0.94 1.17,2.34667 1.17,4.22v0v9.45h-3.96v-9.43c0,-0.84 -0.16667,-1.45333 -0.5,-1.84c-0.32667,-0.38667 -0.90333,-0.58 -1.73,-0.58v0c-1.18667,0 -2.00667,0.56333 -2.46,1.69v0l0.01,10.16h-3.95v-9.42c0,-0.86 -0.17,-1.48 -0.51,-1.86c-0.33333,-0.38 -0.90667,-0.57 -1.72,-0.57v0c-1.12,0 -1.93,0.46333 -2.43,1.39v0v10.46h-3.95zM214.045,231.575v14.79h-3.97v-14.79zM209.845,227.745v0c0,-0.59333 0.19667,-1.08 0.59,-1.46c0.4,-0.38667 0.94,-0.58 1.62,-0.58v0c0.68,0 1.22,0.19333 1.62,0.58c0.4,0.38 0.6,0.86667 0.6,1.46v0c0,0.6 -0.20333,1.09333 -0.61,1.48c-0.40667,0.38 -0.94333,0.57 -1.61,0.57c-0.66,0 -1.19333,-0.19 -1.6,-0.57c-0.40667,-0.38667 -0.61,-0.88 -0.61,-1.48z"></path></g></g></g></svg>